<svg xmlns="http://www.w3.org/2000/svg" viewBox="0 0 64 64" width="64" height="64">
  <defs>
    <linearGradient id="g1" x1="0" x2="0" y1="0" y2="1">
      <stop offset="0%" stop-color="#1e8e5a"/>
      <stop offset="100%" stop-color="#0b3d2e"/>
    </linearGradient>
    <linearGradient id="g2" x1="0" x2="1" y1="0" y2="0">
      <stop offset="0%" stop-color="#2563eb"/>
      <stop offset="100%" stop-color="#22c55e"/>
    </linearGradient>
  </defs>
  <rect x="4" y="4" width="56" height="56" rx="12" fill="url(#g1)"/>
  <!-- Mangrove trunk -->
  <rect x="30" y="22" width="4" height="22" fill="#1b4d3e" rx="2"/>
  <!-- Leaves -->
  <path d="M32 12c8 0 14 6 14 10 0 3-3 5-6 5-4 0-8-3-8-7 0-3 0-8 0-8z" fill="#34d399"/>
  <path d="M32 12c-8 0-14 6-14 10 0 3 3 5 6 5 4 0 8-3 8-7 0-3 0-8 0-8z" fill="#10b981"/>
  <!-- Roots -->
  <path d="M20 46c4 0 6-2 12-2s8 2 12 2" stroke="#14532d" stroke-width="3" fill="none" stroke-linecap="round"/>
  <!-- Water waves -->
  <path d="M12 52c3 0 3-2 6-2s3 2 6 2 3-2 6-2 3 2 6 2 3-2 6-2 3 2 6 2" stroke="url(#g2)" stroke-width="2" fill="none" stroke-linecap="round"/>
</svg>
